<?xml version="1.0" encoding="UTF-8"?>
<svg width="25px" height="119px" viewBox="0 0 25 119" version="1.1" xmlns="http://www.w3.org/2000/svg" xmlns:xlink="http://www.w3.org/1999/xlink">
    <title>090888BE-20D9-4B14-ABE1-49A7D231B8E4</title>
    <g id="Desktop-Dark" stroke="none" stroke-width="1" fill="none" fill-rule="evenodd">
        <g id="home-desktop" transform="translate(-1859.000000, -8.000000)">
            <g id="light-mode-switcher" transform="translate(1859.000000, 8.000000)">
                <g id="bulb" transform="translate(12.500000, 69.500000) rotate(-180.000000) translate(-12.500000, -69.500000) translate(0.000000, 57.000000)" fill="#FFFFFF" fill-rule="nonzero">
                    <path d="M18.1702637,2.33466797 C16.6526367,0.827734375 14.6433594,4.8828125e-05 12.5060547,4.8828125e-05 C12.4867188,4.8828125e-05 12.4669434,4.8828125e-05 12.4476074,4.8828125e-05 C10.3609863,0.0149414062 8.38535156,0.832470703 6.88457031,2.30224609 C5.38349609,3.77231445 4.52553711,5.73051758 4.46884766,7.81601562 C4.4097168,9.98930664 5.20576172,12.0476562 6.71035156,13.6119629 C7.89516602,14.8437988 8.54765625,16.4822266 8.54765625,18.2255371 L8.54765625,21.5791504 C8.54765625,22.2681641 9.02602539,22.8472168 9.66791992,23.0025391 L9.66791992,23.449707 C9.66791992,24.304541 10.3633789,25 11.2182129,25 L13.7816895,25 C14.6365234,25 15.3319824,24.304541 15.3319824,23.449707 L15.3319824,23.005127 C15.9794922,22.8538086 16.4633789,22.2721191 16.4633789,21.5791504 L16.4633789,18.2256348 C16.4633789,16.505127 17.1337891,14.8477539 18.3512207,13.5588867 C19.7660645,12.0609863 20.5452637,10.1009277 20.5452637,8.03974609 C20.5452637,5.88154297 19.7018066,3.85541992 18.1702637,2.33466797 Z M14.3554688,23.4497559 C14.3554688,23.7661133 14.0980957,24.0234863 13.7817383,24.0234863 L11.2182617,24.0234863 C10.9019043,24.0234863 10.6445313,23.7661133 10.6445313,23.4497559 L10.6445313,23.0438477 L14.3554688,23.0438477 L14.3554688,23.4497559 Z M15.4868652,21.5791504 C15.4868652,21.848291 15.2679199,22.0672852 14.9987305,22.0672852 L14.84375,22.0672852 L10.15625,22.0672852 L10.0124023,22.0672852 C9.74321289,22.0672852 9.52426758,21.848291 9.52426758,21.5791504 L9.52426758,18.8020508 L15.4868652,18.8020508 L15.4868652,21.5791504 L15.4868652,21.5791504 Z M11.7385254,17.8254883 L11.7385254,11.6493652 L13.2597168,11.6493652 L13.2597168,17.8254883 L11.7385254,17.8254883 L11.7385254,17.8254883 Z M17.6413574,12.8882812 C16.3463379,14.259375 15.5936035,15.9993164 15.4974121,17.8254395 L14.2362793,17.8254395 L14.2362793,11.6493652 L14.6751465,11.6493652 C15.4556152,11.6493652 16.090625,11.0144043 16.090625,10.2338867 L16.090625,10.1582031 C16.090625,9.37768555 15.4556152,8.74272461 14.6751465,8.74272461 C13.8946777,8.74272461 13.2597168,9.37768555 13.2597168,10.1582031 L13.2597168,10.6728027 L11.7385254,10.6728027 L11.7385254,10.1582031 C11.7385254,9.37768555 11.1035645,8.74272461 10.3230957,8.74272461 L10.2269043,8.74272461 C9.44643555,8.74272461 8.81147461,9.37768555 8.81147461,10.1582031 L8.81147461,10.2338867 C8.81147461,11.0143555 9.44643555,11.6493652 10.2269043,11.6493652 L10.7619629,11.6493652 L10.7619629,17.8254395 L9.51420898,17.8254395 C9.42099609,15.9786133 8.68364258,14.2547363 7.41420898,12.9349609 C6.09243164,11.5607422 5.39306641,9.75219727 5.44506836,7.84257812 C5.54731445,4.08330078 8.69169922,1.00332031 12.4544922,0.976757812 C14.3536133,0.963427734 16.1368164,1.69174805 17.4822266,3.02763672 C18.8277832,4.36367187 19.56875,6.14370117 19.56875,8.03974609 C19.56875,9.85058594 18.8842285,11.5724609 17.6413574,12.8882812 Z M14.2362793,10.6728027 L14.2362793,10.1582031 C14.2362793,9.91616211 14.4331543,9.71928711 14.6751465,9.71928711 C14.9171875,9.71928711 15.1140625,9.91621094 15.1140625,10.1582031 L15.1140625,10.2338867 C15.1140625,10.4759277 14.9171875,10.6728027 14.6751465,10.6728027 L14.2362793,10.6728027 Z M10.7619141,10.1582031 L10.7619141,10.6728027 L10.7619141,10.6728027 L10.2268555,10.6728027 C9.98486328,10.6728027 9.78798828,10.4759277 9.78798828,10.2338867 L9.78798828,10.1582031 C9.78798828,9.91616211 9.98486328,9.71928711 10.2268555,9.71928711 L10.3230469,9.71928711 C10.5650391,9.71928711 10.7619141,9.91625977 10.7619141,10.1582031 Z" id="Shape"></path>
                    <path d="M17.7395996,5.92602539 C17.320166,4.8847168 16.6067871,3.99853516 15.6766602,3.36328125 C14.7232422,2.7121582 13.6056641,2.37231445 12.4476074,2.38046875 C12.1779297,2.38237305 11.9608398,2.60253906 11.9627317,2.8722168 C11.9646484,3.14072266 12.1829102,3.35703125 12.4509277,3.35703125 C12.4520996,3.35703125 12.4533203,3.35703125 12.4544434,3.35703125 C12.465918,3.35698242 12.4770996,3.35693359 12.4885254,3.35693359 C14.4113281,3.35693359 16.1145996,4.50561523 16.8338379,6.29091797 C16.910498,6.48125 17.0935547,6.596875 17.2868652,6.596875 C17.3476074,6.596875 17.4094238,6.58549805 17.4691895,6.56137695 C17.7192871,6.4605957 17.8404297,6.17612305 17.7395996,5.92602539 Z" id="Path"></path>
                    <path d="M18.0048828,7.69438477 C17.9140625,7.60356445 17.7880859,7.55131836 17.659668,7.55131836 C17.53125,7.55131836 17.4052734,7.60356445 17.3144531,7.69438477 C17.2231445,7.78520508 17.1713867,7.91118164 17.1713867,8.03959961 C17.1713867,8.16850586 17.2231445,8.29399414 17.3144531,8.38481445 C17.4052734,8.47612305 17.5307617,8.52788086 17.659668,8.52788086 C17.7880859,8.52788086 17.9140625,8.47612305 18.0048828,8.38481445 C18.0956543,8.29399414 18.1479492,8.16850586 18.1479492,8.03959961 C18.1479492,7.91118164 18.0957031,7.78520508 18.0048828,7.69438477 Z" id="Path"></path>
                    <path d="M22.6772461,2.43208008 C22.4865234,2.24140625 22.1774414,2.24140625 21.9866699,2.43208008 L21.0769531,3.34179687 C20.8862793,3.5324707 20.8862793,3.84165039 21.0769531,4.03237305 C21.1723145,4.12773437 21.2972656,4.17539062 21.4222656,4.17539062 C21.5472656,4.17539062 21.672168,4.12773437 21.7675293,4.03237305 L22.6772461,3.12265625 C22.8679199,2.93198242 22.8679199,2.62280273 22.6772461,2.43208008 Z" id="Path"></path>
                    <path d="M22.6771973,12.9569336 L21.7675293,12.0472168 C21.5768555,11.856543 21.2677734,11.856543 21.0769531,12.0472168 C20.8862793,12.2378906 20.8862793,12.5470703 21.0769531,12.7377441 L21.9866699,13.6474609 C22.0820312,13.7428223 22.2069824,13.7904785 22.3319336,13.7904785 C22.4568848,13.7904785 22.5818359,13.7427734 22.6771973,13.6474609 C22.8678711,13.4567871 22.8678711,13.1476074 22.6771973,12.9569336 Z" id="Path"></path>
                    <path d="M24.5117188,7.55151367 L23.2251465,7.55151367 C22.9555176,7.55151367 22.7368652,7.77011719 22.7368652,8.03979492 C22.7368652,8.30947266 22.9555176,8.52807617 23.2251465,8.52807617 L24.5117188,8.52807617 C24.7813477,8.52807617 25,8.30947266 25,8.03979492 C25,7.77011719 24.7813477,7.55151367 24.5117188,7.55151367 Z" id="Path"></path>
                    <path d="M3.92299805,3.3418457 L3.01333008,2.43212891 C2.82260742,2.24145508 2.51352539,2.24145508 2.32275391,2.43212891 C2.13208008,2.62280273 2.13208008,2.93198242 2.32275391,3.12270508 L3.2324707,4.03242187 C3.32783203,4.1277832 3.4527832,4.17543945 3.57773437,4.17543945 C3.70268555,4.17543945 3.82763672,4.1277832 3.92299805,4.03242187 C4.11367188,3.84169922 4.11367188,3.53256836 3.92299805,3.3418457 Z" id="Path"></path>
                    <path d="M3.92299805,12.047168 C3.73232422,11.8564453 3.42319336,11.8564453 3.2324707,12.047168 L2.32275391,12.9569336 C2.13208008,13.1476074 2.13208008,13.4567871 2.32275391,13.6474609 C2.41811523,13.7428223 2.54306641,13.7904785 2.66801758,13.7904785 C2.79296875,13.7904785 2.91791992,13.7427734 3.01328125,13.6474609 L3.92299805,12.7377441 C4.11367188,12.5470215 4.11367188,12.2378906 3.92299805,12.047168 Z" id="Path"></path>
                    <path d="M1.77485352,7.55151367 L0.48828125,7.55151367 C0.218652344,7.55151367 0,7.77011719 0,8.03979492 C0,8.30947266 0.218652344,8.52807617 0.48828125,8.52807617 L1.77485352,8.52807617 C2.04448242,8.52807617 2.26313477,8.30947266 2.26313477,8.03979492 C2.26313477,7.77011719 2.04448242,7.55151367 1.77485352,7.55151367 Z" id="Path"></path>
                </g>
                <circle id="Oval" fill="#FFFFFF" cx="12.5" cy="116.5" r="2.5"></circle>
                <line x1="12.5" y1="57.5" x2="12.5" y2="0.5" id="Line" stroke="#FFFFFF" stroke-linecap="square"></line>
                <line x1="12.5" y1="114.5" x2="12.5" y2="82.5" id="Line-Copy" stroke="#FFFFFF" stroke-linecap="round" stroke-dasharray="1,2"></line>
            </g>
        </g>
    </g>
</svg>