<?xml version="1.0" encoding="UTF-8"?>
<svg width="110px" height="41px" viewBox="0 0 110 41" version="1.1" xmlns="http://www.w3.org/2000/svg" xmlns:xlink="http://www.w3.org/1999/xlink">
    <title>0C8B3B38-133E-4221-A669-F67013BD5F67</title>
    <g id="Desktop-Dark" stroke="none" stroke-width="1" fill="none" fill-rule="evenodd">
        <g id="home-desktop" transform="translate(-36.000000, -56.000000)" fill="#FFFFFF">
            <g id="logo/black/main" transform="translate(36.000000, 56.000000)">
                <path d="M47.2289231,5.02488 C47.2289231,6.58224 48.4389231,7.78176 50.0550769,7.78176 C51.7998462,7.78176 53.0098462,6.49152 53.0098462,4.7124 C53.0098462,2.00088 50.1447692,0 46.1593846,0 C41.2770769,0 38.3629231,2.8476 38.3629231,7.69272 L38.3629231,10.00776 L27.6963077,10.00776 L27.6963077,9.07368 C27.6963077,2.982 28.3207692,1.42464 30.8304615,1.42464 C31.636,1.42464 32.3552308,2.00088 32.3552308,2.62416 C32.3552308,2.8476 32.2638462,3.06936 32.0844615,3.51288 C31.7730769,4.0908 31.6833846,4.536 31.6833846,5.02488 C31.6833846,6.58224 32.8916923,7.78176 34.5061538,7.78176 C36.2526154,7.78176 37.4609231,6.49152 37.4609231,4.7124 C37.4609231,2.00088 34.5992308,0 30.6070769,0 C25.7247692,0 22.8123077,2.8476 22.8123077,7.69272 L22.8123077,10.00776 L20.4278462,10.00776 L20.4278462,11.6088 L22.8106154,11.6088 L22.8106154,23.63088 C19.9946154,27.7284 16.0193846,29.76288 11.8698462,29.76288 C9.14184615,29.76288 6.98753846,28.602 6.04492308,26.60112 C5.46615385,25.40328 5.24276923,23.97864 5.15307692,20.95296 C6.62876923,22.28856 8.24323077,22.86816 10.3010769,22.86816 C14.784,22.86816 17.8284615,20.33136 17.8284615,16.59672 C17.8284615,12.72432 14.4709231,10.10184 9.36523077,10.10184 C3.31353846,10.10184 0,13.7928 0,20.59848 C0,27.49152 3.94138462,31.36056 10.8866154,31.36056 C13.4403077,31.36056 15.9076923,30.74064 18.0975385,29.4924 C19.8507692,28.47096 21.2486154,27.21936 22.8106154,25.31256 L22.8106154,40.91808 L27.6929231,37.78488 L27.6929231,11.6088 L38.3612308,11.6088 L38.3612308,40.91808 L43.2435385,37.78488 L43.2435385,11.6088 L47.6672308,11.6088 L47.6672308,10.00776 L43.2435385,10.00776 L43.2435385,9.07368 C43.2435385,2.982 43.868,1.42464 46.3810769,1.42464 C47.1883077,1.42464 47.9007692,2.00088 47.9007692,2.62416 C47.9007692,2.8476 47.8127692,3.06936 47.6316923,3.51288 C47.3186154,4.09248 47.2289231,4.536 47.2289231,5.02488 M9.00476923,11.52312 C11.3350769,11.52312 12.8107692,13.30056 12.8107692,16.10616 L12.8107692,16.41528 C12.6787692,19.35024 11.3350769,20.99832 9.00476923,20.99832 C6.58476923,20.99832 5.19538462,19.572 5.19538462,16.94952 C5.19538462,13.43496 6.54076923,11.52312 9.00476923,11.52312 M107.833846,23.17392 C105.950308,26.95224 103.934769,28.73136 101.653538,28.73136 C99.4078462,28.73136 98.3789231,27.174 98.3789231,23.7048 L98.3789231,11.6088 L103.002308,11.6088 L103.002308,10.00776 L98.3789231,10.00776 L98.3789231,1.29024 L93.5016923,4.40496 L93.5016923,10.00776 L91.0224615,10.00776 L91.0224615,11.6088 L93.5016923,11.6088 L93.5016923,23.92152 C90.6856923,27.174 85.5986154,29.76288 82.39,29.76288 C78.0830769,29.76288 76.1606154,26.8716 76.1606154,20.46408 C76.1606154,14.36904 77.5466154,11.61216 80.6367692,11.61216 C81.9855385,11.61216 82.8773846,12.23544 82.8773846,13.21488 L82.8773846,13.30392 L82.8367692,13.52568 L82.8367692,13.70208 L82.7876923,13.92552 C82.7403077,14.10192 82.654,14.5908 82.654,14.90328 C82.654,16.72776 83.864,17.92728 85.7458462,17.92728 C87.5413846,17.92728 88.7936923,16.63704 88.7936923,14.90328 C88.7936923,11.92296 85.8795385,10.09848 81.1326154,10.09848 C74.5444615,10.09848 70.9584615,13.88016 70.9584615,20.77152 C70.9584615,21.9828 71.0887692,23.10336 71.3375385,24.12816 C68.6010769,27.89136 65.2655385,29.75952 61.2886154,29.75952 C58.5589231,29.75952 56.4046154,28.59864 55.4687692,26.59776 C54.8815385,25.39824 54.6581538,23.9736 54.5701538,20.94792 C56.0492308,22.28352 57.6603077,22.86312 59.7215385,22.86312 C64.2010769,22.86312 67.2455385,20.32632 67.2455385,16.59168 C67.2455385,12.71928 63.8863077,10.0968 58.7789231,10.0968 C52.7272308,10.0968 49.4153846,13.78776 49.4153846,20.59344 C49.4153846,27.48648 53.3567692,31.3572 60.3003077,31.3572 C62.854,31.3572 65.318,30.73728 67.5146154,29.48736 C69.1324615,28.54656 70.4473846,27.40752 71.8655385,25.73928 C73.348,29.31936 76.5938462,31.35384 81.1783077,31.35384 C85.1163077,31.35384 90.134,29.11104 93.5778462,25.71744 C93.7250769,26.98584 94.0889231,27.85104 94.7523077,28.63728 C95.8675385,29.92416 97.6207692,30.59112 99.8156923,30.59112 C104.026154,30.59112 106.715231,28.59528 109.133538,23.69976 C108.463385,23.65944 108.331385,23.61912 107.833846,23.17392 M58.4218462,11.52312 C60.7521538,11.52312 62.2312308,13.30056 62.2312308,16.10616 L62.2312308,16.41528 C62.0958462,19.35024 60.7504615,20.99832 58.4218462,20.99832 C56.0052308,20.99832 54.6158462,19.572 54.6158462,16.94952 C54.6158462,13.43496 55.9595385,11.52312 58.4218462,11.52312" id="Fill-1"></path>
            </g>
        </g>
    </g>
</svg>