<?xml version="1.0" encoding="UTF-8"?>
<svg width="110px" height="162px" viewBox="0 0 110 162" version="1.1" xmlns="http://www.w3.org/2000/svg" xmlns:xlink="http://www.w3.org/1999/xlink">
    <title>8618D25A-35CE-4303-95DD-0030290F5485</title>
    <g id="Desktop-Dark" stroke="none" stroke-width="1" fill="none" fill-rule="evenodd">
        <g id="home-desktop" transform="translate(-826.000000, -1390.000000)" fill-rule="nonzero">
            <g id="emoji-+-txt" transform="translate(826.000000, 1390.000016)">
                <g id="emoji/peace" transform="translate(54.818263, 80.733937) rotate(-360.000000) translate(-54.818263, -80.733937) translate(0.000000, 0.000000)">
                    <path d="M20.8874862,102.564388 C22.1233602,104.693575 24.28363,106.122502 26.7266334,106.426737 C29.1696368,106.730971 31.614387,105.875521 33.3347229,104.114479 C33.8059229,103.644494 34.2085942,103.110498 34.5308771,102.528219 C35.9056004,100.096351 35.8947969,97.1194976 34.5024587,94.697672 L20.1150239,69.7902811 C18.4394276,66.8915479 15.1117369,65.3721412 11.8238322,66.0045649 C8.53592746,66.6369887 6.00934448,69.2824565 5.52866055,72.5959472 C5.2839318,74.3854244 5.64789111,76.205221 6.56205505,77.7629197 L20.8874862,102.564388 Z" id="Path" fill="#FFD800"></path>
                    <path d="M52.563611,72.4693564 L54.3332991,75.5359545 L55.2401028,74.0426995 C57.5913962,70.1344965 61.6103461,67.5257045 66.1372477,66.9691142 L67.3153174,66.8244389 L52.5041908,11.519749 C51.3256499,7.39531335 47.0576218,4.97776628 42.914187,6.08766528 C38.7707521,7.19756428 36.2826746,11.4248646 37.3236257,15.5861564 L52.563611,72.4693564 Z" id="Path" fill="#FFD800"></path>
                    <path d="M39.2844917,91.9436756 C41.4587686,95.6986697 46.2635116,96.9830945 50.0214606,94.8139288 C53.7795531,92.6423588 55.0667068,87.8360598 52.8968807,84.07696 L38.5120294,59.1618188 C36.8375064,56.2634107 33.5113177,54.7431993 30.2238932,55.3737839 C26.9364687,56.0043685 24.4088689,58.6474373 23.9256661,61.9597343 C23.6797146,63.749249 24.0437536,65.5694439 24.9590606,67.1267068 L39.2844917,91.9436756 Z" id="Path" fill="#FFD800"></path>
                    <path d="M90.2618422,72.3711839 L67.9818569,72.3711839 C65.3458357,72.3763392 62.8333473,73.4891466 61.0581138,75.4377821 C59.2695938,77.3790257 58.392101,79.9898956 58.6451376,82.6172903 C59.0791633,87.3864059 63.264411,91.122127 68.1730349,91.122127 L86.2445211,91.122127 C87.0454523,91.1231027 87.8067406,91.4707703 88.331978,92.0754334 C88.8627611,92.6853003 89.0972321,93.4983851 88.9726826,94.2972316 C88.7282794,95.6695629 87.5246052,96.662047 86.1308477,96.6404536 L83.5835303,96.6404536 C74.9611075,96.6504193 67.9737381,103.637789 67.9637725,112.260211 C67.9623482,113.783465 66.7278626,115.01795 65.2046092,115.019375 C65.0793808,115.019352 64.9542736,115.011587 64.8300037,114.996123 C63.4353068,114.768988 62.419364,113.551618 62.4454459,112.138788 C62.4783476,107.046837 64.3500321,102.138253 67.7157578,98.3171362 L69.1056734,96.7412096 L67.0078826,96.6042848 C64.2795594,96.4261368 61.6536,95.4971713 59.4201835,93.9200426 L58.4591266,93.2431692 L57.9114275,94.2765637 C55.5959643,98.6429492 51.0601461,101.37537 46.1178128,101.381151 C44.7443995,101.380229 43.379195,101.169393 42.0694899,100.755947 L40.9921761,100.41751 L40.7493284,101.518076 C39.5622048,106.906673 35.1871705,111.01279 29.7341909,111.856152 C24.2812114,112.699514 18.8701496,110.106923 16.1106202,105.328718 L5.45115596,86.8671252 L5.45115596,108.074964 C5.45115596,108.591661 5.45115596,109.108358 5.47699083,109.625055 C5.54786467,111.810237 5.76797368,113.988021 6.13577982,116.143191 L6.1202789,116.143191 L6.36571009,117.378098 C6.54138716,118.266817 6.74548257,119.15812 6.97024587,120.033922 C9.81450341,130.998725 16.4409282,140.606217 25.6798532,147.160527 C30.7434862,150.754156 36.3832367,153.200718 42.9168734,154.629386 C46.3752467,155.391773 49.9057578,155.778952 53.4471633,155.784204 C64.4657321,155.784204 75.1303633,152.048483 83.4698569,145.264248 C92.1423763,138.210991 98.0814174,128.352183 100.262517,117.388432 C100.520866,116.122523 100.717211,114.83078 100.86447,113.551955 C100.939391,112.903499 100.998811,112.260211 101.047897,111.604006 C101.096983,110.9478 101.130569,110.291595 101.151237,109.637973 C101.166738,109.121276 101.177072,108.604578 101.177072,108.087881 L101.177072,83.2864132 C101.169954,77.2610494 96.2872061,72.3783019 90.2618422,72.3711839 Z" id="Path" fill="#FFD800"></path>
                    <path d="M96.6611376,5.70173802 C96.4906275,5.68882059 96.3175339,5.68365256 96.1444404,5.68365256 C95.3237531,5.68365256 94.5085702,5.81762767 93.7314642,6.0815105 C91.2140041,6.90960097 89.2874878,8.95670689 88.613578,11.519749 L73.7766165,66.8528573 L90.0525798,66.8528573 L103.786393,15.5861564 C104.396426,13.3046402 103.949178,10.869762 102.568165,8.95396963 C101.187152,7.03817726 99.0185019,5.84418376 96.6611376,5.70173802 L96.6611376,5.70173802 Z" id="Path" fill="#FFD800"></path>
                    <path d="M99.7225688,0.457260954 C96.2955738,-0.462678323 92.6434571,0.0171610245 89.5704043,1.79111978 C86.4973515,3.56507853 84.2553561,6.48769013 83.3380991,9.91540407 L70.6195963,57.3843802 L57.9010936,9.91540407 C56.4341072,4.44938067 51.6867326,0.497538664 46.0452914,0.0463161623 C40.4038502,-0.404906339 35.0886846,2.74209798 32.7715229,7.90545178 C31.5032036,10.793258 31.2731777,14.0309646 32.1204844,17.0690775 L41.953233,53.7545821 L39.5996771,52.0572316 C37.7590221,50.73896 35.6177018,49.9023264 33.3708917,49.6235876 C31.0152085,49.3308315 28.6241734,49.6789105 26.4497321,50.6311472 C22.7055209,52.2605241 19.9103177,55.510495 18.8594495,59.4563362 C18.8077798,59.6475142 18.7612771,59.8386921 18.7199413,60.0324536 L18.4615927,61.1330188 L17.3868624,60.7945821 C13.3447124,59.5163039 8.93576918,60.2324962 5.50606812,62.7245079 C2.07636706,65.2165195 0.0330742215,69.1885047 0,73.4278298 L0,107.90187 C0,108.390149 0,108.888762 0.0206678899,109.387375 L0.0387522936,110.079749 C1.11251976,138.763844 24.6758074,161.46435 53.3799927,161.467874 C82.3615413,161.467874 106.023692,138.250083 106.744484,109.42871 L106.744484,109.42871 C106.757402,108.979184 106.762569,108.529657 106.762569,108.080131 L106.762569,83.1107362 C106.774019,76.3962617 102.686336,70.3548467 96.4492917,67.8681674 L95.6019083,67.5271472 L109.180712,16.8391472 C111.084113,9.70474657 106.852851,2.376031 99.7225688,0.457260954 Z M37.3882128,15.4130628 C36.2645921,11.2203521 38.752581,6.91061385 42.9452917,5.78699306 C47.1380025,4.66337227 51.4477407,7.15136124 52.5713615,11.344072 L67.3902385,66.6539288 L66.2121688,66.7986041 C61.6816215,67.3525476 57.6584358,69.961615 55.3046899,73.8721894 L54.4004697,75.3654444 L52.6307817,72.3014298 L37.3882128,15.4130628 Z M23.9902532,61.7866408 C24.473456,58.4743437 27.0010559,55.8312749 30.2884804,55.2006903 C33.5759049,54.5701057 36.9020935,56.0903171 38.5766165,58.9887252 L52.9614679,83.9090334 C55.1316611,87.6679908 53.8437132,92.4745171 50.0847559,94.6447104 C46.3257985,96.8149036 41.5192722,95.5269559 39.3490789,91.7679986 L25.0313982,66.9665307 C24.1114844,65.4062021 23.7446698,63.5812314 23.9902532,61.7866408 Z M5.59324771,72.4151032 C6.07561134,69.1024084 8.60287231,66.4585403 11.8904567,65.8273427 C15.178041,65.1961452 18.5047301,66.716088 20.179611,69.6146041 L34.5670459,94.5349123 C35.9619891,96.9560367 35.9727976,99.9342737 34.5954642,102.365459 C34.2749695,102.94822 33.8730736,103.482341 33.4018936,103.95172 C31.682047,105.713782 29.2369843,106.569935 26.7935955,106.265652 C24.3502066,105.96137 22.1898061,104.531685 20.9546569,102.401628 L6.63697615,77.60016 C5.71424714,76.0389844 5.34642399,74.2117045 5.59324771,72.4151032 Z M101.244242,83.1107362 L101.244242,107.912204 C101.244242,108.428901 101.244242,108.945599 101.220991,109.462296 C101.197739,110.121085 101.164154,110.779874 101.115068,111.428329 C101.065982,112.076784 101.006561,112.720072 100.93164,113.376277 C100.784382,114.655103 100.58287,115.946846 100.332272,117.215338 C98.1467178,128.176646 92.208467,138.033229 83.539611,145.088571 C75.1975339,151.872806 64.5354862,155.608527 53.5143339,155.608527 C49.9734032,155.607377 46.4429126,155.224532 42.984044,154.466626 C36.4529908,153.035375 30.8132404,150.591397 25.7470239,147.002934 C16.5090661,140.448189 9.88359326,130.84075 7.04,119.876329 C6.88499083,119.274377 6.7403156,118.664674 6.60597431,118.052388 L6.60597431,118.052388 L6.44063119,117.220505 C6.36571009,116.845899 6.29853945,116.471294 6.23136881,116.094105 L6.21070092,115.985599 L6.21070092,115.985599 C5.84318517,113.830331 5.62222096,111.652625 5.54932844,109.467463 C5.53382752,108.950766 5.52607706,108.434068 5.52607706,107.917371 L5.52607706,86.6940316 L16.1752073,105.147874 C18.9321685,109.929848 24.3440525,112.526438 29.7992752,111.684621 C35.254498,110.842805 39.6318924,106.735593 40.8190826,101.344982 L41.0619303,100.244417 L42.1366606,100.582854 C48.2885835,102.535102 54.956428,99.809028 57.9785982,94.1060536 L58.5262972,93.0726591 L59.4873541,93.7495325 C61.7200342,95.3262139 64.3450386,96.255158 67.0724697,96.4337747 L69.1676771,96.5706995 L67.780345,98.1466261 C64.4181344,101.968078 62.5501009,106.875795 62.520367,111.965694 C62.520367,113.391778 63.5537615,114.647353 64.9049248,114.820446 C65.0283369,114.83583 65.1525796,114.843595 65.2769468,114.843698 C66.8002003,114.842273 68.0346858,113.607788 68.0361101,112.084534 C68.0460784,103.461104 75.0350197,96.4733187 83.6584514,96.4647766 L86.2057688,96.4647766 C87.5995263,96.48637 88.8032005,95.4938859 89.0476037,94.1215545 C89.1706757,93.3238661 88.9386342,92.5122588 88.4125044,91.9001796 C87.8863746,91.2881003 87.1188162,90.9368115 86.3116917,90.9386995 L68.2402055,90.9386995 C63.3315817,90.9386995 59.1437505,87.2029784 58.7097248,82.4364463 C58.456003,79.8058532 59.3333911,77.1915373 61.1227009,75.2466041 C62.8994993,73.3011011 65.4116799,72.1912422 68.046444,72.1877564 L90.3290128,72.1877564 C96.3579902,72.1934587 101.242819,77.0817563 101.244242,83.1107362 Z M103.856147,15.4130628 L90.1145835,66.6771802 L73.8386202,66.6771802 L88.6678312,11.344072 C89.3462653,8.78281159 91.2770155,6.74020433 93.7960514,5.91875086 C94.5736923,5.65316021 95.3898668,5.51830937 96.211611,5.51830937 C96.3821211,5.51830937 96.5552147,5.51830937 96.7283083,5.5363949 C99.0847509,5.67768177 101.253078,6.87006995 102.634554,8.78430812 C104.01603,10.6985463 104.464507,13.1321239 103.856147,15.4130628 L103.856147,15.4130628 Z" id="Shape" fill="#000000"></path>
                    <g id="Group" opacity="0.24" transform="translate(6.458716, 120.132094)" fill="#221F20">
                        <path d="M91.605255,4.21366606 C88.5098133,9.59084831 84.5146057,14.3969817 79.793556,18.4228404 C67.4289908,28.919545 51.0057688,32.6475156 35.5513541,29.105556 C28.728367,27.5554642 22.4659963,24.8324697 16.7539083,20.6033028 C11.7243741,16.8629213 7.38768968,12.2718064 3.93981651,7.03741651 C2.50231773,4.85738375 1.22114313,2.57820523 0.105922936,0.217012844 C1.57104686,5.08858603 3.73716759,9.72107324 6.53622018,13.9689101 C9.77401179,18.8883653 13.8486182,23.2025515 18.5752661,26.7158312 C23.9437505,30.689233 29.8263486,33.233967 36.2385615,34.7039706 C50.7577541,38.0315009 66.2070018,34.5308771 77.8042716,24.6671266 C82.2452928,20.8864012 86.0030534,16.3700973 88.9132624,11.3156697 C90.9316349,7.81334092 92.539697,4.09009197 93.7056294,0.21959633 C93.0563131,1.58195474 92.3561884,2.91331131 91.605255,4.21366606 Z" id="Path"></path>
                    </g>
                    <path d="M65.4784587,58.9396389 C59.6901849,59.6619243 54.550625,62.9931205 51.527633,67.9818408 L53.7235963,76.1534077 L67.9327706,68.5295399 L65.4784587,58.9396389 Z" id="Path" fill="#000000" opacity="0.24"></path>
                    <polygon id="Path" fill="#000000" opacity="0.24" points="92.6024807 58.371272 75.6083083 58.371272 73.3503413 67.1137894 90.3445138 67.1137894"></polygon>
                </g>
            </g>
        </g>
    </g>
</svg>